<svg width="32" height="32" viewBox="0 0 32 32" fill="none" xmlns="http://www.w3.org/2000/svg">
<g filter="url(#filter0_b_90_694)">
<circle cx="16" cy="16" r="16" fill="white" fill-opacity="0.13"/>
<circle cx="16" cy="16" r="15.75" stroke="white" stroke-opacity="0.35" stroke-width="0.5"/>
</g>
<path d="M24.1964 12.2548C23.7431 11.2519 23.117 10.3471 22.3355 9.56588C20.6172 7.84751 18.3323 6.90088 15.9018 6.90088C11.2255 6.90088 7.36333 10.4469 6.85949 14.991L6.20902 14.3405C5.88708 14.0181 5.36469 14.0183 5.04254 14.3405C4.72019 14.6626 4.72019 15.185 5.04254 15.5072L7.13379 17.5986C7.28847 17.7533 7.49842 17.8403 7.71703 17.8403C7.93564 17.8403 8.14559 17.7535 8.30027 17.5988L10.3917 15.5074C10.7141 15.185 10.7141 14.6628 10.3917 14.3407C10.0698 14.0185 9.54697 14.0185 9.22524 14.3407L8.51517 15.0508C8.98333 11.3903 12.1163 8.55098 15.902 8.55098C17.8915 8.55098 19.7621 9.32582 21.1691 10.7328C21.8092 11.3729 22.3221 12.1137 22.6932 12.9346C23.1296 13.9002 23.3506 14.9316 23.3506 16.0001C23.3506 20.1075 20.0092 23.4492 15.902 23.4492C13.9126 23.4492 12.0424 22.6747 10.6357 21.2684C10.3134 20.9463 9.79116 20.9465 9.46902 21.2686C9.14687 21.5908 9.14687 22.1132 9.46922 22.4353C11.1878 24.153 13.4723 25.0991 15.902 25.0991C20.9189 25.0991 25.0005 21.0172 25.0005 16.0001C25.0005 14.6954 24.73 13.4355 24.1964 12.2548Z" fill="white" stroke="#23232D"/>
<path d="M13.0981 19.7063V13.9475L11.8425 14.7073V13.7854L13.0981 13.0349H13.9366V19.7063H13.0981Z" fill="white"/>
<path d="M17.951 19.8453C17.5186 19.8453 17.1326 19.748 16.7928 19.5534C16.4561 19.3557 16.189 19.0885 15.9913 18.7519C15.7967 18.4121 15.6994 18.0261 15.6994 17.5937V15.1475C15.6994 14.7151 15.7967 14.329 15.9913 13.9892C16.189 13.6495 16.4561 13.3823 16.7928 13.1877C17.1326 12.9932 17.5186 12.8959 17.951 12.8959C18.3834 12.8959 18.7695 12.9932 19.1093 13.1877C19.449 13.3823 19.7162 13.6495 19.9108 13.9892C20.1053 14.329 20.2026 14.7151 20.2026 15.1475V17.5937C20.2026 18.0261 20.1053 18.4121 19.9108 18.7519C19.7162 19.0885 19.449 19.3557 19.1093 19.5534C18.7695 19.748 18.3834 19.8453 17.951 19.8453ZM17.951 19.053C18.2136 19.053 18.4514 18.9897 18.6645 18.8631C18.8776 18.7364 19.0475 18.5666 19.1741 18.3535C19.3008 18.1373 19.3641 17.8994 19.3641 17.64V15.0965C19.3641 14.834 19.3008 14.5962 19.1741 14.383C19.0475 14.1699 18.8776 14.0001 18.6645 13.8734C18.4514 13.7468 18.2136 13.6835 17.951 13.6835C17.6916 13.6835 17.4538 13.7468 17.2376 13.8734C17.0245 14.0001 16.8546 14.1699 16.7279 14.383C16.6013 14.5962 16.538 14.834 16.538 15.0965V17.64C16.538 17.8994 16.6013 18.1373 16.7279 18.3535C16.8546 18.5666 17.0245 18.7364 17.2376 18.8631C17.4538 18.9897 17.6916 19.053 17.951 19.053Z" fill="white"/>
<defs>
<filter id="filter0_b_90_694" x="-12.9" y="-12.9" width="57.8" height="57.8" filterUnits="userSpaceOnUse" color-interpolation-filters="sRGB">
<feFlood flood-opacity="0" result="BackgroundImageFix"/>
<feGaussianBlur in="BackgroundImageFix" stdDeviation="6.45"/>
<feComposite in2="SourceAlpha" operator="in" result="effect1_backgroundBlur_90_694"/>
<feBlend mode="normal" in="SourceGraphic" in2="effect1_backgroundBlur_90_694" result="shape"/>
</filter>
</defs>
</svg>
